<svg version="1.1" id="Layer_1" xmlns="http://www.w3.org/2000/svg" xmlns:xlink="http://www.w3.org/1999/xlink" x="0px" y="0px"
	 width="100%" viewBox="0 0 1200 1200" enable-background="new 0 0 1200 1200" xml:space="preserve">
<path fill="#FFFFFF" opacity="1.000000" stroke="none" 
	d="
M1116.000000,1201.000000 
	C744.000000,1201.000000 372.500000,1201.000000 1.000000,1201.000000 
	C1.000000,801.000000 1.000000,401.000000 1.000000,1.000000 
	C401.000000,1.000000 801.000000,1.000000 1201.000000,1.000000 
	C1201.000000,401.000000 1201.000000,801.000000 1201.000000,1201.000000 
	C1172.833374,1201.000000 1144.666626,1201.000000 1116.000000,1201.000000 
M748.570435,646.152710 
	C748.272644,646.255310 747.974854,646.357910 747.677002,646.460510 
	C748.080994,646.703186 748.484985,646.945923 748.960144,648.089966 
	C748.960144,652.519470 748.960144,656.949036 748.960144,661.378113 
	C749.816772,661.378113 751.368469,661.378113 752.692810,661.378113 
	C752.150391,659.536438 751.670288,657.906372 751.869202,656.065308 
	C753.310852,657.311401 754.667053,658.679688 756.220032,659.766785 
	C757.575684,660.715881 759.153076,661.348206 760.632568,662.120483 
	C761.059875,661.520142 761.487183,660.919861 761.914490,660.319519 
	C760.829285,659.611328 759.574219,659.065125 758.703857,658.152161 
	C757.713684,657.113525 757.067261,655.747253 757.016602,655.669373 
	C757.811523,652.698364 759.139526,649.416260 758.685852,649.148010 
	C756.358826,647.772339 753.573242,647.172363 750.320251,646.182312 
	C749.897766,646.222595 749.475342,646.262939 748.570435,646.152710 
M1016.500854,544.057800 
	C1011.669434,544.057617 1006.832825,544.193970 1002.008240,544.011841 
	C998.488770,543.879028 996.852661,544.948669 996.889587,548.800049 
	C997.036560,564.125977 997.024841,579.454895 996.891296,594.781006 
	C996.863037,598.032288 997.885986,599.115295 1001.169739,599.085144 
	C1016.329163,598.946167 1031.491089,598.960266 1046.651001,599.075562 
	C1049.734863,599.098938 1051.137451,598.406982 1051.104126,594.949341 
	C1050.953613,579.290222 1050.973511,563.628357 1051.093994,547.968750 
	C1051.118042,544.843872 1049.952759,543.967468 1046.988281,544.007446 
	C1037.160645,544.140198 1027.330078,544.057800 1016.500854,544.057800 
M803.197144,574.677124 
	C813.104858,571.128418 816.580872,565.789917 814.871216,556.748108 
	C813.736572,550.747559 808.880005,545.909607 801.374512,545.302368 
	C790.284973,544.405212 779.115906,544.485840 767.979553,544.193359 
	C767.601929,544.183411 767.212036,544.640747 766.528687,545.066711 
	C767.146545,545.641418 767.554688,546.363037 768.019653,546.401672 
	C773.954834,546.895081 774.467773,550.842285 774.395203,555.632874 
	C774.226135,566.794067 774.388306,577.959778 774.323364,589.123169 
	C774.289001,595.023743 776.204407,601.977905 767.260620,603.975830 
	C775.422302,603.975830 783.584045,603.975830 791.007019,603.975830 
	C788.683899,601.533691 784.866150,599.386414 784.458191,596.717896 
	C783.492981,590.404419 784.148071,583.843201 784.148071,575.457581 
	C787.369507,577.458130 789.979614,578.336670 791.474182,580.139832 
	C796.992981,586.798218 802.135437,593.768066 807.434326,600.609192 
	C810.864075,605.037231 820.094360,606.449524 825.553345,603.242554 
	C823.315247,602.056030 820.638611,601.408325 819.153259,599.715393 
	C812.902954,592.591309 807.024841,585.141663 800.973938,577.841431 
	C799.137634,575.625916 800.345398,575.044250 803.197144,574.677124 
M319.991760,590.453796 
	C316.173798,585.612488 312.355804,580.771240 308.249573,575.564453 
	C316.058044,573.832825 322.190155,571.255676 323.727509,563.540588 
	C325.590363,554.192322 320.379944,546.395752 310.578979,545.409485 
	C299.373993,544.282043 288.032928,544.501587 276.749725,544.180542 
	C276.380463,544.169983 275.997314,544.645935 275.347290,545.075928 
	C275.955017,545.638184 276.368744,546.364929 276.837036,546.401978 
	C282.757019,546.870300 283.358002,550.804749 283.291565,555.599609 
	C283.141724,566.412903 283.294647,577.230103 283.230804,588.045105 
	C283.193054,594.434265 285.348663,602.000305 275.538910,604.055664 
	C283.931000,604.055664 292.323090,604.055664 300.406097,604.055664 
	C297.907318,601.724487 293.966949,599.811096 293.633392,597.398987 
	C292.718048,590.779236 293.317657,583.950134 293.317657,575.663818 
	C296.029449,577.247437 298.260223,577.897522 299.486511,579.378967 
	C304.885162,585.901184 309.996887,592.661011 315.206879,599.339172 
	C319.595032,604.963989 326.541748,606.577148 333.005707,603.965149 
	C328.938232,599.794189 324.669617,595.416992 319.991760,590.453796 
M187.238419,575.312683 
	C191.020416,575.965820 192.457535,578.276367 192.339172,582.018188 
	C192.191879,586.673950 192.563583,591.358704 192.182770,595.987488 
	C192.050262,597.598145 190.705353,599.760376 189.297134,600.507080 
	C181.188644,604.806702 169.332458,601.972107 163.441483,594.828003 
	C156.091553,585.914612 156.777222,575.691589 158.631882,565.380493 
	C160.215073,556.578552 167.037964,549.952576 175.083481,548.740723 
	C185.251465,547.209290 191.780746,550.596680 196.778732,559.908020 
	C197.537155,561.320923 198.568054,562.587646 200.096405,564.841492 
	C200.096405,557.011292 200.096405,550.625671 200.096405,544.240051 
	C195.954803,548.203918 192.085892,547.003113 188.043930,545.635132 
	C185.863373,544.897095 183.502518,544.542175 181.195221,544.353027 
	C168.164566,543.284973 157.661758,547.798828 150.529846,558.976929 
	C144.113174,569.034058 144.756042,584.537781 151.679962,593.919739 
	C160.138443,605.381104 176.941284,610.099182 191.761093,604.720093 
	C203.726059,600.377258 201.642517,602.925415 201.822327,590.623535 
	C201.849091,588.792969 201.878693,586.960022 201.819290,585.131042 
	C201.663605,580.339844 201.447067,575.543762 207.556656,573.689087 
	C199.975052,573.689087 192.393448,573.689087 184.811859,573.689087 
	C184.788620,573.978943 184.765396,574.268799 184.742157,574.558716 
	C185.333023,574.747803 185.923874,574.936890 187.238419,575.312683 
M432.498413,544.078918 
	C421.962524,544.078918 411.426666,544.078918 399.656891,544.078918 
	C401.082336,545.580200 401.462036,546.346375 401.886200,546.371765 
	C408.131500,546.746460 408.632050,550.876221 408.556671,555.845947 
	C408.387482,567.005371 408.504486,578.169067 408.503815,589.331055 
	C408.503235,598.974304 408.502502,598.974304 400.837189,603.690674 
	C401.723694,604.086975 402.381775,604.636230 403.041992,604.638733 
	C417.868652,604.695251 432.695709,604.718384 447.522064,604.638611 
	C448.504639,604.633301 450.133026,603.962891 450.357178,603.253174 
	C451.826172,598.601807 452.991211,593.854431 454.255524,589.138428 
	C453.786438,588.897827 453.317352,588.657288 452.848267,588.416687 
	C451.948914,589.387939 450.738831,590.213196 450.202240,591.354919 
	C447.393860,597.330017 442.512054,599.865967 436.203217,600.066589 
	C431.713013,600.209412 427.207306,600.346619 422.729431,600.102600 
	C421.390564,600.029602 419.024536,598.704712 418.992828,597.881592 
	C418.701996,590.328796 418.821594,582.760193 418.821594,574.903625 
	C424.392609,574.903625 429.202057,574.887085 434.011353,574.908875 
	C437.813538,574.926147 440.283752,576.623718 441.233154,580.467468 
	C441.527771,581.660339 442.369202,582.718140 442.960266,583.837769 
	C443.342316,583.698608 443.724335,583.559448 444.106384,583.420227 
	C444.106384,576.399963 444.106384,569.379700 444.106384,562.359436 
	C443.668396,562.244507 443.230408,562.129639 442.792419,562.014709 
	C442.156586,563.357666 441.794312,564.958618 440.824585,565.986694 
	C439.109253,567.805298 437.170166,570.395813 435.065247,570.669739 
	C429.873169,571.345398 424.534058,570.891174 418.706055,570.891174 
	C418.706055,563.962036 418.569336,557.508667 418.859467,551.074585 
	C418.901062,550.152344 420.974274,548.621277 422.158325,548.570862 
	C427.643188,548.337341 433.147461,548.618408 438.641998,548.534058 
	C442.594910,548.473511 444.736115,550.564819 446.084564,553.972046 
	C446.610687,555.301392 447.366455,556.539978 448.017609,557.819885 
	C448.430511,557.690308 448.843384,557.560669 449.256287,557.431091 
	C449.256287,553.126892 449.256287,548.822693 449.256287,544.648071 
	C448.600616,544.390259 448.296143,544.168213 447.989624,544.165344 
	C443.159088,544.119934 438.328308,544.102722 432.498413,544.078918 
M529.104004,604.581299 
	C530.500000,602.204346 532.271240,602.026794 534.949036,602.700195 
	C539.406555,603.821045 544.054993,604.762817 548.618713,604.744019 
	C555.313049,604.716431 561.933655,599.329346 563.703003,593.494690 
	C565.744080,586.763855 563.632935,580.633118 557.496643,575.988464 
	C554.584717,573.784424 551.522339,571.775513 548.489990,569.734863 
	C545.182861,567.509216 541.165222,565.907776 538.712830,562.981873 
	C536.789307,560.687073 535.697083,556.607605 536.193604,553.649658 
	C536.803772,550.014343 540.412598,548.482971 544.365295,548.633057 
	C550.466553,548.864624 556.223511,553.341187 558.835205,559.931152 
	C559.384888,561.318115 560.366516,562.533936 561.149048,563.828674 
	C561.622437,563.618408 562.095825,563.408142 562.569214,563.197876 
	C561.782166,557.007446 560.995117,550.817017 560.208130,544.626587 
	C559.833618,544.264954 559.459106,543.903259 559.084595,543.541626 
	C557.075806,548.883606 553.986389,546.773193 550.890869,546.175720 
	C547.210999,545.465393 543.387573,544.883911 539.674805,545.095947 
	C533.303406,545.459839 529.347168,549.477417 527.551331,555.343567 
	C525.622559,561.643921 527.800049,567.874207 533.211731,571.676819 
	C538.786438,575.593872 544.696533,579.031799 550.299683,582.910828 
	C554.503296,585.820984 555.998169,590.531250 554.510986,594.701843 
	C552.899048,599.222412 548.789124,601.708618 543.375366,601.201477 
	C535.876587,600.499023 531.702515,595.580627 528.557190,589.336548 
	C527.913635,588.059143 526.744995,587.046204 525.818420,585.911438 
	C525.229431,586.212952 524.640442,586.514465 524.051453,586.815979 
	C525.497437,592.779968 526.943420,598.743896 529.104004,604.581299 
M688.946533,590.375610 
	C682.076416,574.853577 675.206299,559.331482 667.791260,542.578186 
	C666.382690,545.030029 665.648315,546.055908 665.164551,547.188843 
	C659.355225,560.791626 653.707764,574.465271 647.742310,587.998840 
	C645.205139,593.754822 643.728271,600.378174 637.294312,604.149292 
	C643.087952,604.149292 648.881592,604.149292 654.786499,604.149292 
	C654.642944,603.413818 654.668091,603.180847 654.568970,603.099670 
	C654.205200,602.801697 653.822815,602.366577 653.407104,602.316345 
	C648.632568,601.738220 648.340820,599.037720 649.729065,595.178528 
	C653.374878,585.042786 653.319519,585.022766 664.281799,585.024292 
	C667.276489,585.024719 670.271912,584.988708 673.265442,585.049072 
	C674.237732,585.068665 675.854492,585.053406 676.072937,585.544678 
	C678.002747,589.885193 680.123962,594.238037 681.147217,598.819824 
	C681.423279,600.055908 678.145569,602.085693 675.726807,604.532288 
	C683.677551,604.875549 691.128540,604.702209 698.746277,603.805725 
	C692.587830,601.368164 691.671448,595.638733 688.946533,590.375610 
M917.902039,585.472290 
	C917.902039,573.363953 917.902039,561.255554 917.902039,548.146851 
	C922.911926,548.778076 927.762634,548.190491 931.114319,550.157349 
	C934.303650,552.028931 935.927185,556.568726 938.937500,560.952332 
	C938.937500,554.695923 938.937500,549.613098 938.937500,544.459106 
	C921.394165,544.459106 904.517334,544.459106 887.587891,544.459106 
	C887.587891,549.834351 887.587891,554.805054 887.587891,560.923218 
	C888.867126,559.390625 889.526672,558.891602 889.796997,558.232849 
	C893.544006,549.103333 894.652222,548.477112 904.020874,548.565247 
	C907.323303,548.596313 908.310791,549.716431 908.273804,552.930054 
	C908.131653,565.259827 907.972656,577.599060 908.317383,589.920837 
	C908.497559,596.359131 908.233093,601.877380 900.304565,603.097229 
	C900.248901,603.105774 900.237915,603.405151 900.093628,604.146973 
	C908.999084,604.146973 917.791687,604.146973 927.210144,604.146973 
	C926.377991,603.122375 926.149231,602.539856 925.780945,602.431458 
	C917.938782,600.123962 917.934509,600.134338 917.903748,591.959167 
	C917.896851,590.126099 917.902161,588.293091 917.902039,585.472290 
M882.963623,653.573608 
	C883.186218,651.186584 883.408875,648.799500 883.657898,646.128906 
	C876.858398,645.268433 878.765015,652.902344 875.369446,655.283325 
	C871.852539,653.015381 873.738770,645.541138 866.959473,646.189209 
	C866.959473,651.515869 866.959473,656.505371 866.959473,661.758240 
	C867.734619,661.673889 869.106262,661.524719 870.162415,661.409790 
	C870.035095,658.879944 869.929504,656.781189 869.752014,653.254150 
	C871.842651,656.685425 873.098694,658.746887 874.771179,661.491882 
	C876.470520,658.302979 877.797668,655.812439 879.124817,653.321899 
	C879.486694,653.434326 879.848572,653.546814 880.210510,653.659241 
	C879.913391,656.256958 879.616272,658.854614 879.323059,661.418579 
	C880.765320,661.418579 882.469666,661.418579 883.749451,661.418579 
	C883.464050,658.886047 883.213440,656.662354 882.963623,653.573608 
M955.133850,564.323364 
	C959.740601,568.332214 965.715393,569.324585 970.278931,566.388916 
	C974.362732,563.761841 976.335999,559.735596 975.806152,554.845459 
	C975.173889,549.009094 971.905945,545.470459 966.013611,544.359375 
	C961.016174,543.416992 956.747925,544.887390 953.961670,549.402466 
	C950.939270,554.300354 951.065002,559.131897 955.133850,564.323364 
M694.893005,652.015137 
	C695.047119,647.324097 695.922302,646.926819 701.427490,649.048828 
	C700.897705,645.660034 699.249451,645.265930 690.598145,646.534668 
	C690.598145,651.465637 690.598145,656.423157 690.598145,661.438477 
	C700.692444,662.593445 701.592041,662.326782 702.234619,658.373291 
	C700.025879,658.700684 697.649597,659.052979 695.273315,659.405212 
	C695.142456,658.300903 694.627869,656.377930 694.944946,656.229370 
	C696.611389,655.448181 698.488159,655.115662 700.685303,654.520813 
	C700.623596,653.891724 700.508484,652.718567 700.427856,651.896545 
	C698.490784,652.180115 696.955566,652.404785 694.893005,652.015137 
M820.150330,659.055603 
	C818.070801,654.701538 815.991272,650.347473 813.331116,644.777649 
	C810.817383,651.265503 808.847351,656.350220 806.877258,661.434998 
	C807.432861,661.690674 807.988525,661.946411 808.544128,662.202087 
	C809.294739,660.676331 810.045349,659.150635 811.079590,657.048401 
	C814.115173,656.229309 817.055725,656.174805 815.914185,661.485046 
	C820.388306,661.798523 820.388306,661.798523 820.150330,659.055603 
M1039.679077,660.693420 
	C1041.009888,660.527466 1043.502808,660.333923 1043.499634,660.199646 
	C1043.436401,657.527100 1044.861328,656.152954 1047.156616,656.956299 
	C1048.592285,657.458923 1049.513672,659.430603 1051.483765,661.674805 
	C1051.540771,661.669250 1053.027954,661.524658 1054.846924,661.347778 
	C1052.230103,655.927368 1049.908203,651.117859 1047.291992,645.698608 
	C1044.552002,651.067688 1042.250854,655.576721 1039.679077,660.693420 
M989.522888,645.683960 
	C988.074951,646.004333 986.541321,646.120361 985.195435,646.684326 
	C981.529480,648.220276 980.219788,651.553589 981.219543,654.889832 
	C981.976074,657.414612 984.062561,660.464294 986.317688,661.354980 
	C988.538208,662.231995 991.716248,660.684998 994.474121,660.201599 
	C994.399109,659.557495 994.324097,658.913391 994.249023,658.269287 
	C990.888000,659.971436 987.014893,661.586548 985.296570,657.292053 
	C984.360962,654.953613 984.723389,650.617249 986.308289,649.190918 
	C987.715027,647.924988 991.618774,649.433533 994.890259,649.765015 
	C996.090271,646.757080 993.285767,646.214722 989.522888,645.683960 
M641.768982,646.134277 
	C635.437378,645.252686 631.677979,647.590820 631.119690,652.757568 
	C630.570618,657.838928 633.048218,661.049072 638.274841,661.347168 
	C634.812317,657.492371 632.448059,653.147095 636.450439,649.199707 
	C637.721558,647.946106 641.747803,649.486084 645.042480,649.797729 
	C644.493896,649.015259 643.512878,647.615967 641.768982,646.134277 
M931.375183,650.909851 
	C931.166199,654.382690 930.957214,657.855591 930.730347,661.626343 
	C931.932922,661.572388 933.617371,661.496765 934.910156,661.438782 
	C934.910156,656.046021 934.910156,651.216614 934.910156,646.342773 
	C933.320007,646.342773 931.744080,646.342773 930.391846,646.342773 
	C930.746155,647.693970 931.057739,648.882202 931.375183,650.909851 
z"/>
<path fill="#F2DFC1" opacity="1.000000" stroke="none" 
	d="
M1017.000732,544.057861 
	C1027.330078,544.057800 1037.160645,544.140198 1046.988281,544.007446 
	C1049.952759,543.967468 1051.118042,544.843872 1051.093994,547.968750 
	C1050.973511,563.628357 1050.953613,579.290222 1051.104126,594.949341 
	C1051.137451,598.406982 1049.734863,599.098938 1046.651001,599.075562 
	C1031.491089,598.960266 1016.329163,598.946167 1001.169739,599.085144 
	C997.885986,599.115295 996.863037,598.032288 996.891296,594.781006 
	C997.024841,579.454895 997.036560,564.125977 996.889587,548.800049 
	C996.852661,544.948669 998.488770,543.879028 1002.008240,544.011841 
	C1006.832825,544.193970 1011.669434,544.057617 1017.000732,544.057861 
z"/>
<path fill="#9D9D9D" opacity="1.000000" stroke="none" 
	d="
M802.821350,574.751343 
	C800.345398,575.044250 799.137634,575.625916 800.973938,577.841431 
	C807.024841,585.141663 812.902954,592.591309 819.153259,599.715393 
	C820.638611,601.408325 823.315247,602.056030 825.553345,603.242554 
	C820.094360,606.449524 810.864075,605.037231 807.434326,600.609192 
	C802.135437,593.768066 796.992981,586.798218 791.474182,580.139832 
	C789.979614,578.336670 787.369507,577.458130 784.148071,575.457581 
	C784.148071,583.843201 783.492981,590.404419 784.458191,596.717896 
	C784.866150,599.386414 788.683899,601.533691 791.007019,603.975830 
	C783.584045,603.975830 775.422302,603.975830 767.260620,603.975830 
	C776.204407,601.977905 774.289001,595.023743 774.323364,589.123169 
	C774.388306,577.959778 774.226135,566.794067 774.395203,555.632874 
	C774.467773,550.842285 773.954834,546.895081 768.019653,546.401672 
	C767.554688,546.363037 767.146545,545.641418 766.528687,545.066711 
	C767.212036,544.640747 767.601929,544.183411 767.979553,544.193359 
	C779.115906,544.485840 790.284973,544.405212 801.374512,545.302368 
	C808.880005,545.909607 813.736572,550.747559 814.871216,556.748108 
	C816.580872,565.789917 813.104858,571.128418 802.821350,574.751343 
M804.055786,565.173340 
	C805.852844,560.241028 805.516113,555.427551 801.707092,551.744080 
	C797.421265,547.599609 791.735779,547.614258 786.191162,548.264954 
	C785.396667,548.358154 784.158264,549.764404 784.140564,550.584900 
	C783.980530,557.994812 784.046936,565.409607 784.046936,573.444397 
	C791.751587,572.294739 799.317017,573.410156 804.055786,565.173340 
z"/>
<path fill="#9D9D9D" opacity="1.000000" stroke="none" 
	d="
M320.196381,590.746826 
	C324.669617,595.416992 328.938232,599.794189 333.005707,603.965149 
	C326.541748,606.577148 319.595032,604.963989 315.206879,599.339172 
	C309.996887,592.661011 304.885162,585.901184 299.486511,579.378967 
	C298.260223,577.897522 296.029449,577.247437 293.317657,575.663818 
	C293.317657,583.950134 292.718048,590.779236 293.633392,597.398987 
	C293.966949,599.811096 297.907318,601.724487 300.406097,604.055664 
	C292.323090,604.055664 283.931000,604.055664 275.538910,604.055664 
	C285.348663,602.000305 283.193054,594.434265 283.230804,588.045105 
	C283.294647,577.230103 283.141724,566.412903 283.291565,555.599609 
	C283.358002,550.804749 282.757019,546.870300 276.837036,546.401978 
	C276.368744,546.364929 275.955017,545.638184 275.347290,545.075928 
	C275.997314,544.645935 276.380463,544.169983 276.749725,544.180542 
	C288.032928,544.501587 299.373993,544.282043 310.578979,545.409485 
	C320.379944,546.395752 325.590363,554.192322 323.727509,563.540588 
	C322.190155,571.255676 316.058044,573.832825 308.249573,575.564453 
	C312.355804,580.771240 316.173798,585.612488 320.196381,590.746826 
M301.730255,572.557434 
	C307.860474,571.448669 312.917389,568.976990 313.853180,562.028870 
	C314.437439,557.690796 313.659760,552.939880 309.550201,551.187073 
	C305.054077,549.269348 299.805328,549.062317 294.848877,548.362854 
	C294.363098,548.294373 293.107605,549.987732 293.089539,550.881104 
	C292.943359,558.123779 293.007477,565.370667 293.007477,572.765930 
	C296.004730,572.765930 298.448120,572.765930 301.730255,572.557434 
z"/>
<path fill="#9F9F9F" opacity="1.000000" stroke="none" 
	d="
M186.876572,575.219360 
	C185.923874,574.936890 185.333023,574.747803 184.742157,574.558716 
	C184.765396,574.268799 184.788620,573.978943 184.811859,573.689087 
	C192.393448,573.689087 199.975052,573.689087 207.556656,573.689087 
	C201.447067,575.543762 201.663605,580.339844 201.819290,585.131042 
	C201.878693,586.960022 201.849091,588.792969 201.822327,590.623535 
	C201.642517,602.925415 203.726059,600.377258 191.761093,604.720093 
	C176.941284,610.099182 160.138443,605.381104 151.679962,593.919739 
	C144.756042,584.537781 144.113174,569.034058 150.529846,558.976929 
	C157.661758,547.798828 168.164566,543.284973 181.195221,544.353027 
	C183.502518,544.542175 185.863373,544.897095 188.043930,545.635132 
	C192.085892,547.003113 195.954803,548.203918 200.096405,544.240051 
	C200.096405,550.625671 200.096405,557.011292 200.096405,564.841492 
	C198.568054,562.587646 197.537155,561.320923 196.778732,559.908020 
	C191.780746,550.596680 185.251465,547.209290 175.083481,548.740723 
	C167.037964,549.952576 160.215073,556.578552 158.631882,565.380493 
	C156.777222,575.691589 156.091553,585.914612 163.441483,594.828003 
	C169.332458,601.972107 181.188644,604.806702 189.297134,600.507080 
	C190.705353,599.760376 192.050262,597.598145 192.182770,595.987488 
	C192.563583,591.358704 192.191879,586.673950 192.339172,582.018188 
	C192.457535,578.276367 191.020416,575.965820 186.876572,575.219360 
z"/>
<path fill="#9D9D9D" opacity="1.000000" stroke="none" 
	d="
M432.997986,544.078979 
	C438.328308,544.102722 443.159088,544.119934 447.989624,544.165344 
	C448.296143,544.168213 448.600616,544.390259 449.256287,544.648071 
	C449.256287,548.822693 449.256287,553.126892 449.256287,557.431091 
	C448.843384,557.560669 448.430511,557.690308 448.017609,557.819885 
	C447.366455,556.539978 446.610687,555.301392 446.084564,553.972046 
	C444.736115,550.564819 442.594910,548.473511 438.641998,548.534058 
	C433.147461,548.618408 427.643188,548.337341 422.158325,548.570862 
	C420.974274,548.621277 418.901062,550.152344 418.859467,551.074585 
	C418.569336,557.508667 418.706055,563.962036 418.706055,570.891174 
	C424.534058,570.891174 429.873169,571.345398 435.065247,570.669739 
	C437.170166,570.395813 439.109253,567.805298 440.824585,565.986694 
	C441.794312,564.958618 442.156586,563.357666 442.792419,562.014709 
	C443.230408,562.129639 443.668396,562.244507 444.106384,562.359436 
	C444.106384,569.379700 444.106384,576.399963 444.106384,583.420227 
	C443.724335,583.559448 443.342316,583.698608 442.960266,583.837769 
	C442.369202,582.718140 441.527771,581.660339 441.233154,580.467468 
	C440.283752,576.623718 437.813538,574.926147 434.011353,574.908875 
	C429.202057,574.887085 424.392609,574.903625 418.821594,574.903625 
	C418.821594,582.760193 418.701996,590.328796 418.992828,597.881592 
	C419.024536,598.704712 421.390564,600.029602 422.729431,600.102600 
	C427.207306,600.346619 431.713013,600.209412 436.203217,600.066589 
	C442.512054,599.865967 447.393860,597.330017 450.202240,591.354919 
	C450.738831,590.213196 451.948914,589.387939 452.848267,588.416687 
	C453.317352,588.657288 453.786438,588.897827 454.255524,589.138428 
	C452.991211,593.854431 451.826172,598.601807 450.357178,603.253174 
	C450.133026,603.962891 448.504639,604.633301 447.522064,604.638611 
	C432.695709,604.718384 417.868652,604.695251 403.041992,604.638733 
	C402.381775,604.636230 401.723694,604.086975 400.837189,603.690674 
	C408.502502,598.974304 408.503235,598.974304 408.503815,589.331055 
	C408.504486,578.169067 408.387482,567.005371 408.556671,555.845947 
	C408.632050,550.876221 408.131500,546.746460 401.886200,546.371765 
	C401.462036,546.346375 401.082336,545.580200 399.656891,544.078918 
	C411.426666,544.078918 421.962524,544.078918 432.997986,544.078979 
z"/>
<path fill="#9F9F9F" opacity="1.000000" stroke="none" 
	d="
M528.746704,604.644592 
	C526.943420,598.743896 525.497437,592.779968 524.051453,586.815979 
	C524.640442,586.514465 525.229431,586.212952 525.818420,585.911438 
	C526.744995,587.046204 527.913635,588.059143 528.557190,589.336548 
	C531.702515,595.580627 535.876587,600.499023 543.375366,601.201477 
	C548.789124,601.708618 552.899048,599.222412 554.510986,594.701843 
	C555.998169,590.531250 554.503296,585.820984 550.299683,582.910828 
	C544.696533,579.031799 538.786438,575.593872 533.211731,571.676819 
	C527.800049,567.874207 525.622559,561.643921 527.551331,555.343567 
	C529.347168,549.477417 533.303406,545.459839 539.674805,545.095947 
	C543.387573,544.883911 547.210999,545.465393 550.890869,546.175720 
	C553.986389,546.773193 557.075806,548.883606 559.084595,543.541626 
	C559.459106,543.903259 559.833618,544.264954 560.208130,544.626587 
	C560.995117,550.817017 561.782166,557.007446 562.569214,563.197876 
	C562.095825,563.408142 561.622437,563.618408 561.149048,563.828674 
	C560.366516,562.533936 559.384888,561.318115 558.835205,559.931152 
	C556.223511,553.341187 550.466553,548.864624 544.365295,548.633057 
	C540.412598,548.482971 536.803772,550.014343 536.193604,553.649658 
	C535.697083,556.607605 536.789307,560.687073 538.712830,562.981873 
	C541.165222,565.907776 545.182861,567.509216 548.489990,569.734863 
	C551.522339,571.775513 554.584717,573.784424 557.496643,575.988464 
	C563.632935,580.633118 565.744080,586.763855 563.703003,593.494690 
	C561.933655,599.329346 555.313049,604.716431 548.618713,604.744019 
	C544.054993,604.762817 539.406555,603.821045 534.949036,602.700195 
	C532.271240,602.026794 530.500000,602.204346 528.746704,604.644592 
z"/>
<path fill="#9F9F9F" opacity="1.000000" stroke="none" 
	d="
M689.095093,590.722351 
	C691.671448,595.638733 692.587830,601.368164 698.746277,603.805725 
	C691.128540,604.702209 683.677551,604.875549 675.726807,604.532288 
	C678.145569,602.085693 681.423279,600.055908 681.147217,598.819824 
	C680.123962,594.238037 678.002747,589.885193 676.072937,585.544678 
	C675.854492,585.053406 674.237732,585.068665 673.265442,585.049072 
	C670.271912,584.988708 667.276489,585.024719 664.281799,585.024292 
	C653.319519,585.022766 653.374878,585.042786 649.729065,595.178528 
	C648.340820,599.037720 648.632568,601.738220 653.407104,602.316345 
	C653.822815,602.366577 654.205200,602.801697 654.568970,603.099670 
	C654.668091,603.180847 654.642944,603.413818 654.786499,604.149292 
	C648.881592,604.149292 643.087952,604.149292 637.294312,604.149292 
	C643.728271,600.378174 645.205139,593.754822 647.742310,587.998840 
	C653.707764,574.465271 659.355225,560.791626 665.164551,547.188843 
	C665.648315,546.055908 666.382690,545.030029 667.791260,542.578186 
	C675.206299,559.331482 682.076416,574.853577 689.095093,590.722351 
M671.921265,573.579651 
	C669.813538,568.548828 667.705811,563.518005 665.167969,557.460632 
	C661.817810,565.462891 658.950928,572.282166 656.130859,579.120728 
	C655.965942,579.520630 656.179993,580.076782 656.243713,580.893066 
	C662.298767,580.893066 668.317261,580.893066 674.917908,580.893066 
	C673.924744,578.472656 673.065857,576.379333 671.921265,573.579651 
z"/>
<path fill="#A0A0A0" opacity="1.000000" stroke="none" 
	d="
M917.901978,585.966187 
	C917.902161,588.293091 917.896851,590.126099 917.903748,591.959167 
	C917.934509,600.134338 917.938782,600.123962 925.780945,602.431458 
	C926.149231,602.539856 926.377991,603.122375 927.210144,604.146973 
	C917.791687,604.146973 908.999084,604.146973 900.093628,604.146973 
	C900.237915,603.405151 900.248901,603.105774 900.304565,603.097229 
	C908.233093,601.877380 908.497559,596.359131 908.317383,589.920837 
	C907.972656,577.599060 908.131653,565.259827 908.273804,552.930054 
	C908.310791,549.716431 907.323303,548.596313 904.020874,548.565247 
	C894.652222,548.477112 893.544006,549.103333 889.796997,558.232849 
	C889.526672,558.891602 888.867126,559.390625 887.587891,560.923218 
	C887.587891,554.805054 887.587891,549.834351 887.587891,544.459106 
	C904.517334,544.459106 921.394165,544.459106 938.937500,544.459106 
	C938.937500,549.613098 938.937500,554.695923 938.937500,560.952332 
	C935.927185,556.568726 934.303650,552.028931 931.114319,550.157349 
	C927.762634,548.190491 922.911926,548.778076 917.902039,548.146851 
	C917.902039,561.255554 917.902039,573.363953 917.901978,585.966187 
z"/>
<path fill="#B0B0B0" opacity="1.000000" stroke="none" 
	d="
M882.963196,654.006104 
	C883.213440,656.662354 883.464050,658.886047 883.749451,661.418579 
	C882.469666,661.418579 880.765320,661.418579 879.323059,661.418579 
	C879.616272,658.854614 879.913391,656.256958 880.210510,653.659241 
	C879.848572,653.546814 879.486694,653.434326 879.124817,653.321899 
	C877.797668,655.812439 876.470520,658.302979 874.771179,661.491882 
	C873.098694,658.746887 871.842651,656.685425 869.752014,653.254150 
	C869.929504,656.781189 870.035095,658.879944 870.162415,661.409790 
	C869.106262,661.524719 867.734619,661.673889 866.959473,661.758240 
	C866.959473,656.505371 866.959473,651.515869 866.959473,646.189209 
	C873.738770,645.541138 871.852539,653.015381 875.369446,655.283325 
	C878.765015,652.902344 876.858398,645.268433 883.657898,646.128906 
	C883.408875,648.799500 883.186218,651.186584 882.963196,654.006104 
z"/>
<path fill="#B0B0B0" opacity="1.000000" stroke="none" 
	d="
M954.868286,564.048706 
	C951.065002,559.131897 950.939270,554.300354 953.961670,549.402466 
	C956.747925,544.887390 961.016174,543.416992 966.013611,544.359375 
	C971.905945,545.470459 975.173889,549.009094 975.806152,554.845459 
	C976.335999,559.735596 974.362732,563.761841 970.278931,566.388916 
	C965.715393,569.324585 959.740601,568.332214 954.868286,564.048706 
M956.351135,549.323669 
	C952.676941,554.728760 952.872559,558.735474 957.327942,563.651428 
	C962.631897,567.384949 968.107727,566.929504 971.831482,562.445068 
	C974.995850,558.634399 974.640503,552.487915 971.046753,548.872681 
	C967.077759,544.879883 961.533325,544.934387 956.351135,549.323669 
z"/>
<path fill="#B0B0B0" opacity="1.000000" stroke="none" 
	d="
M695.156677,652.322266 
	C696.955566,652.404785 698.490784,652.180115 700.427856,651.896545 
	C700.508484,652.718567 700.623596,653.891724 700.685303,654.520813 
	C698.488159,655.115662 696.611389,655.448181 694.944946,656.229370 
	C694.627869,656.377930 695.142456,658.300903 695.273315,659.405212 
	C697.649597,659.052979 700.025879,658.700684 702.234619,658.373291 
	C701.592041,662.326782 700.692444,662.593445 690.598145,661.438477 
	C690.598145,656.423157 690.598145,651.465637 690.598145,646.534668 
	C699.249451,645.265930 700.897705,645.660034 701.427490,649.048828 
	C695.922302,646.926819 695.047119,647.324097 695.156677,652.322266 
z"/>
<path fill="#B0B0B0" opacity="1.000000" stroke="none" 
	d="
M820.366760,659.328247 
	C820.388306,661.798523 820.388306,661.798523 815.914185,661.485046 
	C817.055725,656.174805 814.115173,656.229309 811.079590,657.048401 
	C810.045349,659.150635 809.294739,660.676331 808.544128,662.202087 
	C807.988525,661.946411 807.432861,661.690674 806.877258,661.434998 
	C808.847351,656.350220 810.817383,651.265503 813.331116,644.777649 
	C815.991272,650.347473 818.070801,654.701538 820.366760,659.328247 
z"/>
<path fill="#B0B0B0" opacity="1.000000" stroke="none" 
	d="
M1039.814453,660.389587 
	C1042.250854,655.576721 1044.552002,651.067688 1047.291992,645.698608 
	C1049.908203,651.117859 1052.230103,655.927368 1054.846924,661.347778 
	C1053.027954,661.524658 1051.540771,661.669250 1051.483765,661.674805 
	C1049.513672,659.430603 1048.592285,657.458923 1047.156616,656.956299 
	C1044.861328,656.152954 1043.436401,657.527100 1043.499634,660.199646 
	C1043.502808,660.333923 1041.009888,660.527466 1039.814453,660.389587 
z"/>
<path fill="#B0B0B0" opacity="1.000000" stroke="none" 
	d="
M989.891479,645.768311 
	C993.285767,646.214722 996.090271,646.757080 994.890259,649.765015 
	C991.618774,649.433533 987.715027,647.924988 986.308289,649.190918 
	C984.723389,650.617249 984.360962,654.953613 985.296570,657.292053 
	C987.014893,661.586548 990.888000,659.971436 994.249023,658.269287 
	C994.324097,658.913391 994.399109,659.557495 994.474121,660.201599 
	C991.716248,660.684998 988.538208,662.231995 986.317688,661.354980 
	C984.062561,660.464294 981.976074,657.414612 981.219543,654.889832 
	C980.219788,651.553589 981.529480,648.220276 985.195435,646.684326 
	C986.541321,646.120361 988.074951,646.004333 989.891479,645.768311 
z"/>
<path fill="#B0B0B0" opacity="1.000000" stroke="none" 
	d="
M750.947937,646.301392 
	C753.573242,647.172363 756.358826,647.772339 758.685852,649.148010 
	C759.139526,649.416260 757.811523,652.698364 757.016602,655.669373 
	C757.067261,655.747253 757.713684,657.113525 758.703857,658.152161 
	C759.574219,659.065125 760.829285,659.611328 761.914490,660.319519 
	C761.487183,660.919861 761.059875,661.520142 760.632568,662.120483 
	C759.153076,661.348206 757.575684,660.715881 756.220032,659.766785 
	C754.667053,658.679688 753.310852,657.311401 751.460571,655.777344 
	C751.017212,652.426636 750.982544,649.364014 750.947937,646.301392 
z"/>
<path fill="#B0B0B0" opacity="1.000000" stroke="none" 
	d="
M642.150391,646.175476 
	C643.512878,647.615967 644.493896,649.015259 645.042480,649.797729 
	C641.747803,649.486084 637.721558,647.946106 636.450439,649.199707 
	C632.448059,653.147095 634.812317,657.492371 638.274841,661.347168 
	C633.048218,661.049072 630.570618,657.838928 631.119690,652.757568 
	C631.677979,647.590820 635.437378,645.252686 642.150391,646.175476 
z"/>
<path fill="#A0A0A0" opacity="1.000000" stroke="none" 
	d="
M931.372253,650.490112 
	C931.057739,648.882202 930.746155,647.693970 930.391846,646.342773 
	C931.744080,646.342773 933.320007,646.342773 934.910156,646.342773 
	C934.910156,651.216614 934.910156,656.046021 934.910156,661.438782 
	C933.617371,661.496765 931.932922,661.572388 930.730347,661.626343 
	C930.957214,657.855591 931.166199,654.382690 931.372253,650.490112 
z"/>
<path fill="#A0A0A0" opacity="1.000000" stroke="none" 
	d="
M750.634094,646.241821 
	C750.982544,649.364014 751.017212,652.426636 751.121033,655.882812 
	C751.670288,657.906372 752.150391,659.536438 752.692810,661.378113 
	C751.368469,661.378113 749.816772,661.378113 748.960144,661.378113 
	C748.960144,656.949036 748.960144,652.519470 748.978271,647.419678 
	C748.996460,646.749451 749.052856,646.303223 749.052856,646.303223 
	C749.475342,646.262939 749.897766,646.222595 750.634094,646.241821 
z"/>
<path fill="#B0B0B0" opacity="1.000000" stroke="none" 
	d="
M748.811646,646.227966 
	C749.052856,646.303223 748.996460,646.749451 748.942749,646.969055 
	C748.484985,646.945923 748.080994,646.703186 747.677002,646.460571 
	C747.974854,646.357910 748.272644,646.255310 748.811646,646.227966 
z"/>
<path fill="#FCFCFC" opacity="1.000000" stroke="none" 
	d="
M803.899048,565.534485 
	C799.317017,573.410156 791.751587,572.294739 784.046936,573.444397 
	C784.046936,565.409607 783.980530,557.994812 784.140564,550.584900 
	C784.158264,549.764404 785.396667,548.358154 786.191162,548.264954 
	C791.735779,547.614258 797.421265,547.599609 801.707092,551.744080 
	C805.516113,555.427551 805.852844,560.241028 803.899048,565.534485 
z"/>
<path fill="#FCFCFC" opacity="1.000000" stroke="none" 
	d="
M301.310883,572.661682 
	C298.448120,572.765930 296.004730,572.765930 293.007477,572.765930 
	C293.007477,565.370667 292.943359,558.123779 293.089539,550.881104 
	C293.107605,549.987732 294.363098,548.294373 294.848877,548.362854 
	C299.805328,549.062317 305.054077,549.269348 309.550201,551.187073 
	C313.659760,552.939880 314.437439,557.690796 313.853180,562.028870 
	C312.917389,568.976990 307.860474,571.448669 301.310883,572.661682 
z"/>
<path fill="#FCFCFC" opacity="1.000000" stroke="none" 
	d="
M672.064087,573.932861 
	C673.065857,576.379333 673.924744,578.472656 674.917908,580.893066 
	C668.317261,580.893066 662.298767,580.893066 656.243713,580.893066 
	C656.179993,580.076782 655.965942,579.520630 656.130859,579.120728 
	C658.950928,572.282166 661.817810,565.462891 665.167969,557.460632 
	C667.705811,563.518005 669.813538,568.548828 672.064087,573.932861 
z"/>
<path fill="#FCFCFC" opacity="1.000000" stroke="none" 
	d="
M957.014099,549.010620 
	C961.533325,544.934387 967.077759,544.879883 971.046753,548.872681 
	C974.640503,552.487915 974.995850,558.634399 971.831482,562.445068 
	C968.107727,566.929504 962.631897,567.384949 957.155884,563.329834 
	C956.983887,563.008179 956.949036,563.030273 957.369995,563.024353 
	C959.601257,563.018433 961.411560,563.018433 962.789734,563.018433 
	C962.502930,560.527161 962.244263,558.280457 961.985657,556.033752 
	C962.413391,555.919739 962.841064,555.805786 963.268799,555.691772 
	C965.006470,558.255432 966.744141,560.819153 968.481812,563.382874 
	C968.846863,563.105103 969.211853,562.827393 969.576904,562.549622 
	C968.180481,559.179138 968.433960,559.204041 969.021057,553.227478 
	C969.146240,551.952698 966.905945,549.588745 965.378967,549.198120 
	C962.726074,548.519531 959.779724,548.988098 956.971069,548.984131 
	C956.985657,548.992676 957.014099,549.010620 957.014099,549.010620 
z"/>
<path fill="#FCFCFC" opacity="1.000000" stroke="none" 
	d="
M957.000977,562.996460 
	C952.872559,558.735474 952.676941,554.728760 956.682617,549.167114 
	C957.014099,549.010620 956.985657,548.992676 957.173645,549.295410 
	C961.045410,553.061829 960.851746,559.366882 956.949036,563.030273 
	C956.949036,563.030273 956.983887,563.008179 957.000977,562.996460 
z"/>
<path fill="#B0B0B0" opacity="1.000000" stroke="none" 
	d="
M957.369995,563.024353 
	C960.851746,559.366882 961.045410,553.061829 957.159058,549.286865 
	C959.779724,548.988098 962.726074,548.519531 965.378967,549.198120 
	C966.905945,549.588745 969.146240,551.952698 969.021057,553.227478 
	C968.433960,559.204041 968.180481,559.179138 969.576904,562.549622 
	C969.211853,562.827393 968.846863,563.105103 968.481812,563.382874 
	C966.744141,560.819153 965.006470,558.255432 963.268799,555.691772 
	C962.841064,555.805786 962.413391,555.919739 961.985657,556.033752 
	C962.244263,558.280457 962.502930,560.527161 962.789734,563.018433 
	C961.411560,563.018433 959.601257,563.018433 957.369995,563.024353 
z"/>
</svg>