<?xml version="1.0" encoding="UTF-8" standalone="no"?>
<svg
   xmlns:dc="http://purl.org/dc/elements/1.1/"
   xmlns:cc="http://creativecommons.org/ns#"
   xmlns:rdf="http://www.w3.org/1999/02/22-rdf-syntax-ns#"
   xmlns:svg="http://www.w3.org/2000/svg"
   xmlns="http://www.w3.org/2000/svg"
   viewBox="0 0 793.70135 1122.52"
   height="1122.52"
   width="793.70135"
   xml:space="preserve"
   id="svg2"
   version="1.1"><metadata
     id="metadata8"><rdf:RDF><cc:Work
         rdf:about=""><dc:format>image/svg+xml</dc:format><dc:type
           rdf:resource="http://purl.org/dc/dcmitype/StillImage" /></cc:Work></rdf:RDF></metadata><defs
     id="defs6"><clipPath
       id="clipPath20"
       clipPathUnits="userSpaceOnUse"><path
         id="path18"
         d="M 0,841.89 H 595.276 V 0 H 0 Z" /></clipPath></defs><g
     transform="matrix(1.3333333,0,0,-1.3333333,0,1122.52)"
     id="g10"><path
       id="path12"
       style="fill:#ffffff;fill-opacity:1;fill-rule:nonzero;stroke:none"
       d="M 17,506.585 H 582.692 V 347 H 17 Z" /><g
       id="g14"><g
         clip-path="url(#clipPath20)"
         id="g16"><g
           transform="translate(284.957,416.7705)"
           id="g22"><path
             id="path24"
             style="fill:#009fdd;fill-opacity:1;fill-rule:nonzero;stroke:none"
             d="m 0,0 -9.461,-0.85 c -7.63,-0.694 -11.446,-4.005 -11.446,-9.933 0,-2.207 0.759,-4.004 2.27,-5.391 1.578,-1.326 3.69,-1.986 6.338,-1.986 3.911,0 8.01,1.732 12.299,5.201 z m 0,-19.581 c -4.541,-3.907 -8.955,-5.863 -13.244,-5.863 -4.035,0 -7.536,1.229 -10.5,3.688 -3.153,2.649 -4.73,5.991 -4.73,10.027 0,4.225 1.45,7.6 4.351,10.122 2.965,2.523 7,4.005 12.109,4.447 L 0.284,3.879 v 2.177 c 0,2.46 -0.947,4.539 -2.839,6.242 -1.829,1.703 -4.193,2.556 -7.094,2.556 -2.711,0 -4.888,-0.253 -6.528,-0.758 -1.387,-0.442 -3.279,-1.419 -5.676,-2.932 v 5.391 c 4.164,3.658 8.546,5.487 13.15,5.487 5.108,0 9.144,-1.387 12.107,-4.162 C 6.37,15.104 7.851,11.258 7.851,6.338 v -21.945 l 1.987,-7.851 z" /></g><g
           transform="translate(313.1465,427.3657)"
           id="g26"><path
             id="path28"
             style="fill:#009fdd;fill-opacity:1;fill-rule:nonzero;stroke:none"
             d="m 0,0 c 1.135,3.028 2.807,5.518 5.014,7.474 2.586,2.271 5.611,3.405 9.08,3.405 3.848,0 7.127,-1.356 9.838,-4.067 C 26.645,4.1 28,0.82 28,-3.027 v -31.026 h -7.851 v 29.229 c 0,5.676 -2.805,8.513 -8.419,8.513 C 8.514,3.689 5.738,2.492 3.405,0.096 1.135,-2.239 0,-5.044 0,-8.324 V -34.053 H -7.757 V 9.46 L 0,11.164 Z" /></g><g
           transform="translate(358.5527,452.4351)"
           id="g30"><path
             id="path32"
             style="fill:#009fdd;fill-opacity:1;fill-rule:nonzero;stroke:none"
             d="m 0,0 c 0.945,0 1.766,-0.348 2.459,-1.041 0.693,-0.694 1.04,-1.514 1.04,-2.459 0,-0.947 -0.347,-1.767 -1.04,-2.46 C 1.766,-6.654 0.945,-7 0,-7 c -0.947,0 -1.767,0.346 -2.459,1.04 -0.694,0.693 -1.041,1.513 -1.041,2.46 0,0.945 0.347,1.765 1.041,2.459 C -1.767,-0.348 -0.947,-0.001 0,0 m -8.23,-17.501 12.298,2.271 v -43.893 h -8.042 v 36.324 z" /></g><g
           transform="translate(377.377,393.3125)"
           id="g34"><path
             id="path36"
             style="fill:#009fdd;fill-opacity:1;fill-rule:nonzero;stroke:none"
             d="m 0,0 v 36.893 h -5.297 v 0.378 L 7.567,56.663 H 7.852 V 43.892 h 7.284 V 36.893 H 7.852 L 7.852,0 Z" /></g><g
           transform="translate(248.6094,411.3271)"
           id="g38"><path
             id="path40"
             style="fill:#009fdd;fill-opacity:1;fill-rule:nonzero;stroke:none"
             d="m 0,0 c 0.01,-6.621 -3.608,-19.325 -19.768,-19.579 -5.649,-0.089 -10.763,1.224 -15.345,3.67 v 12.732 c 2.07,-3.327 6.643,-10.567 15.66,-10.467 6.591,0.074 10.766,4.558 10.766,11.273 0,4.174 -3.311,7.551 -7.909,11.367 -10.513,8.73 -18.013,13.797 -18.141,25.083 -0.052,4.582 1.632,8.504 4.895,11.767 3.264,3.327 7.092,5.022 11.487,5.084 5.083,0.063 9.162,-1.254 12.236,-3.953 v -6.968 c -4.518,2.763 -7.939,4.143 -10.26,4.143 -2.699,0 -5.021,-0.754 -6.967,-2.259 -1.633,-1.381 -2.541,-3.359 -2.73,-5.932 -0.125,-2.007 0.564,-4.131 1.944,-5.764 0.943,-1.129 3.044,-2.79 5.492,-4.857 C -6.79,15.333 -0.014,10.006 0,0" /></g><g
           transform="translate(425.8809,416.7705)"
           id="g42"><path
             id="path44"
             style="fill:#009fdd;fill-opacity:1;fill-rule:nonzero;stroke:none"
             d="m 0,0 -9.46,-0.85 c -7.63,-0.694 -11.446,-4.005 -11.446,-9.933 0,-2.207 0.758,-4.004 2.27,-5.391 1.577,-1.326 3.69,-1.986 6.338,-1.986 3.911,0 8.01,1.732 12.298,5.201 z m 0,-19.581 c -4.541,-3.907 -8.955,-5.863 -13.242,-5.863 -4.037,0 -7.537,1.229 -10.502,3.688 -3.152,2.649 -4.729,5.991 -4.729,10.027 0,4.225 1.45,7.6 4.351,10.122 2.965,2.523 7.001,4.005 12.108,4.447 L 0.285,3.879 v 2.177 c 0,2.46 -0.947,4.539 -2.84,6.242 -1.828,1.703 -4.193,2.556 -7.093,2.556 -2.711,0 -4.889,-0.253 -6.528,-0.758 -1.387,-0.442 -3.279,-1.419 -5.676,-2.932 v 5.391 c 4.163,3.658 8.545,5.487 13.151,5.487 5.107,0 9.142,-1.387 12.106,-4.162 C 6.37,15.104 7.852,11.258 7.852,6.338 v -21.945 l 1.987,-7.851 z" /></g><g
           transform="translate(454.0713,427.3657)"
           id="g46"><path
             id="path48"
             style="fill:#009fdd;fill-opacity:1;fill-rule:nonzero;stroke:none"
             d="m 0,0 c 1.134,3.028 2.806,5.518 5.013,7.474 2.586,2.271 5.612,3.405 9.082,3.405 3.847,0 7.125,-1.356 9.838,-4.067 2.712,-2.712 4.066,-5.992 4.066,-9.839 v -31.026 h -7.85 v 29.229 c 0,5.676 -2.806,8.513 -8.42,8.513 C 8.513,3.689 5.737,2.492 3.405,0.096 1.134,-2.239 0,-5.044 0,-8.324 V -34.053 H -7.757 V 9.46 L 0,11.164 Z" /></g><g
           transform="translate(518.9639,416.7705)"
           id="g50"><path
             id="path52"
             style="fill:#009fdd;fill-opacity:1;fill-rule:nonzero;stroke:none"
             d="m 0,0 -9.46,-0.85 c -7.631,-0.694 -11.447,-4.005 -11.447,-9.933 0,-2.207 0.758,-4.004 2.271,-5.391 1.577,-1.326 3.69,-1.986 6.338,-1.986 3.91,0 8.01,1.732 12.298,5.201 z m 0,-19.581 c -4.541,-3.907 -8.955,-5.863 -13.243,-5.863 -4.037,0 -7.537,1.229 -10.502,3.688 -3.152,2.649 -4.729,5.991 -4.729,10.027 0,4.225 1.45,7.6 4.351,10.122 2.966,2.523 7.001,4.005 12.109,4.447 L 0.284,3.879 v 2.177 c 0,2.46 -0.946,4.539 -2.84,6.242 -1.828,1.703 -4.192,2.556 -7.093,2.556 -2.711,0 -4.887,-0.253 -6.528,-0.758 -1.386,-0.442 -3.279,-1.419 -5.676,-2.932 v 5.391 c 4.165,3.658 8.545,5.487 13.151,5.487 5.107,0 9.143,-1.387 12.107,-4.162 C 6.37,15.104 7.851,11.258 7.851,6.338 v -21.945 l 1.988,-7.851 z" /></g><g
           transform="translate(63.8906,405.0283)"
           id="g54"><path
             id="path56"
             style="fill:#009fdd;fill-opacity:1;fill-rule:nonzero;stroke:none"
             d="m 0,0 c 0,31.587 25.604,57.192 57.191,57.192 6.341,0 12.441,-1.032 18.141,-2.937 C 70.475,51.723 58.717,40.729 63.501,25.383 67.31,13.16 73.729,-1.353 65.098,-12.975 h -2.32 c 0.564,0.688 1.07,1.412 1.508,2.172 4.781,8.295 4.069,19.01 -1.907,25.653 -13.34,14.585 -32.661,9.339 -47.671,8.642 1.931,-7.937 2.201,-25.825 13.138,-36.467 H 1.478 C 0.511,-8.807 0,-4.463 0,0" /></g><g
           transform="translate(140.9736,458.9678)"
           id="g58"><path
             id="path60"
             style="fill:#00afaa;fill-opacity:1;fill-rule:nonzero;stroke:none"
             d="m 0,0 c 21.849,-8.044 37.431,-29.045 37.431,-53.686 0,-4.462 -0.511,-8.807 -1.479,-12.976 H 0.031 c 7.697,7.2 10.984,17.578 6.75,28.941 C 1.911,-24.652 -10.111,-17.283 0,0" /></g></g></g></g></svg>