<?xml version="1.0" encoding="UTF-8" standalone="yes"?>
<!-- Created with sK1/UniConvertor (http://sk1project.org/) -->
<svg xmlns="http://www.w3.org/2000/svg" xmlns:xlink="http://www.w3.org/1999/xlink"
  width="595.276pt" height="841.89pt" viewBox="0 0 595.276 841.89"
  fill-rule="evenodd">
<g>
<g>
<g>
<path style="stroke:none; fill:#5c5d5e" d="M 286.798 311.648L 290.17 311.648L 290.17 339.222L 286.798 339.222L 286.798 311.648L 286.798 311.648z"/>
<path style="stroke:none; fill:#5c5d5e" d="M 288.484 325.435"/>
</g>
<g>
<path style="stroke:none; fill:#5c5d5e" d="M 286.798 304.784L 290.17 304.784L 290.17 308.156L 286.798 308.156L 286.798 304.784L 286.798 304.784z"/>
<path style="stroke:none; fill:#5c5d5e" d="M 288.484 306.47"/>
</g>
<path style="stroke:none; fill:#d77100" d="M 216.356 328.626C 216.356 325.254 213.707 322.605 210.336 322.605L 194.802 322.605L 194.802 322.605C 193.357 322.605 192.153 321.401 192.153 319.956L 192.153 317.668C 192.153 316.223 193.357 315.019 194.802 315.019L 212.985 315.019L 212.985 311.648L 194.802 311.648C 191.551 311.648 188.782 314.297 188.782 317.668L 188.782 319.956C 188.782 323.328 191.551 325.977 194.802 325.977L 194.802 325.977L 210.336 325.977C 211.781 325.977 212.985 327.181 212.985 328.626L 212.985 333.202C 212.985 334.647 211.781 335.73 210.336 335.73L 188.782 335.73L 188.782 339.222L 210.336 339.222L 210.336 339.222C 213.707 339.222 216.356 336.453 216.356 333.202L 216.356 328.626z"/>
<path style="stroke:none; fill:#d77100" d="M 235.261 339.222L 249.109 339.222L 249.109 337.416L 249.109 337.416L 249.109 317.668C 249.109 314.297 246.339 311.648 242.968 311.648L 235.261 311.648L 235.261 315.019L 242.968 315.019C 244.413 315.019 245.617 316.223 245.617 317.668L 245.617 322.605L 235.261 322.605L 235.261 325.977L 245.617 325.977L 245.617 335.73L 235.261 335.73L 235.261 339.222zM 221.414 328.626L 221.414 333.202C 221.414 336.453 224.183 339.222 227.555 339.222L 227.555 339.222L 235.261 339.222L 235.261 335.73L 227.555 335.73C 226.11 335.73 224.906 334.647 224.906 333.202L 224.906 328.626C 224.906 327.181 226.11 325.977 227.555 325.977L 235.261 325.977L 235.261 322.605L 227.555 322.605C 224.183 322.605 221.414 325.254 221.414 328.626L 221.414 328.626zM 235.261 311.648L 224.906 311.648L 224.906 315.019L 235.261 315.019L 235.261 311.648z"/>
<path style="stroke:none; fill:#d77100" d="M 281.741 317.668C 281.741 314.297 278.971 311.648 275.72 311.648L 257.538 311.648L 255.491 311.648L 254.166 311.648L 254.166 339.222L 257.538 339.222L 257.538 315.019L 275.72 315.019C 277.165 315.019 278.249 316.223 278.249 317.668L 278.249 339.222L 281.741 339.222L 281.741 317.668z"/>
<path style="stroke:none; fill:#5c5d5e" d="M 322.922 317.668C 322.922 314.297 320.153 311.648 316.781 311.648L 298.719 311.648L 296.672 311.648L 295.227 311.648L 295.227 339.222L 298.719 339.222L 298.719 315.019L 316.781 315.019C 318.226 315.019 319.43 316.223 319.43 317.668L 319.43 339.222L 322.922 339.222L 322.922 317.668z"/>
<path style="stroke:none; fill:#5c5d5e" d="M 341.707 339.222L 352.062 339.222L 353.387 339.222L 355.554 339.222L 355.554 304.784L 352.062 304.784L 352.062 311.648L 341.707 311.648L 341.707 315.019L 352.062 315.019L 352.062 335.73L 341.707 335.73L 341.707 339.222zM 334 311.648L 334 311.648C 330.629 311.648 327.98 314.297 327.98 317.668L 327.98 333.202C 327.98 336.453 330.629 339.222 334 339.222L 341.707 339.222L 341.707 335.73L 334 335.73C 332.555 335.73 331.351 334.647 331.351 333.202L 331.351 317.668C 331.351 316.223 332.555 315.019 334 315.019L 341.707 315.019L 341.707 311.648L 334 311.648z"/>
<path style="stroke:none; fill:#5c5d5e" d="M 360.612 333.202C 360.612 336.453 363.261 339.222 366.632 339.222L 382.166 339.222C 385.537 339.222 388.186 336.453 388.186 333.202L 388.186 311.648L 384.815 311.648L 384.815 333.202C 384.815 334.647 383.611 335.73 382.166 335.73L 366.632 335.73C 365.187 335.73 363.983 334.647 363.983 333.202L 363.983 311.648L 360.612 311.648L 360.612 333.202z"/>
<path style="stroke:none; fill:#5c5d5e" d="M 420.939 328.626C 420.939 325.254 418.169 322.605 414.798 322.605L 399.385 322.605L 399.385 322.605C 397.94 322.605 396.736 321.401 396.736 319.956L 396.736 317.668C 396.736 316.223 397.94 315.019 399.385 315.019L 417.447 315.019L 417.447 311.648L 399.385 311.648C 396.013 311.648 393.244 314.297 393.244 317.668L 393.244 319.956C 393.244 323.328 396.013 325.977 399.385 325.977L 399.385 325.977L 414.798 325.977C 416.243 325.977 417.447 327.181 417.447 328.626L 417.447 333.202C 417.447 334.647 416.243 335.73 414.798 335.73L 393.244 335.73L 393.244 339.222L 414.798 339.222L 414.798 339.222C 418.169 339.222 420.939 336.453 420.939 333.202L 420.939 328.626z"/>
<path style="stroke:none; fill:#5c5d5e" d="M 439.723 339.222L 453.571 339.222L 453.571 337.416L 453.571 337.416L 453.571 317.668C 453.571 314.297 450.801 311.648 447.43 311.648L 439.723 311.648L 439.723 315.019L 447.43 315.019C 448.875 315.019 450.079 316.223 450.079 317.668L 450.079 322.605L 439.723 322.605L 439.723 325.977L 450.079 325.977L 450.079 335.73L 439.723 335.73L 439.723 339.222zM 425.876 328.626L 425.876 333.202C 425.876 336.453 428.645 339.222 432.017 339.222L 432.017 339.222L 439.723 339.222L 439.723 335.73L 432.017 335.73C 430.572 335.73 429.368 334.647 429.368 333.202L 429.368 328.626C 429.368 327.181 430.572 325.977 432.017 325.977L 439.723 325.977L 439.723 322.605L 432.017 322.605C 428.645 322.605 425.876 325.254 425.876 328.626L 425.876 328.626zM 439.723 311.648L 429.368 311.648L 429.368 315.019L 439.723 315.019L 439.723 311.648z"/>
<path style="stroke:none; fill:#d77100" d="M 465.251 305.145C 468.021 305.266 470.188 307.554 470.188 310.323C 470.188 313.093 468.021 315.38 465.251 315.501L 465.251 310.684C 465.251 310.805 465.371 310.805 465.371 310.925C 465.492 311.046 465.612 311.286 465.853 311.527L 466.335 312.25L 467.057 312.25L 466.335 311.166C 466.214 311.046 465.974 310.805 465.853 310.684C 465.853 310.564 465.733 310.564 465.492 310.443C 465.974 310.443 466.214 310.323 466.455 310.082C 466.576 309.962 466.696 309.721 466.696 309.36C 466.696 309.239 466.576 308.999 466.455 308.758C 466.455 308.637 466.214 308.517 466.094 308.396C 465.853 308.396 465.612 308.276 465.251 308.276L 465.251 308.276L 465.251 305.145L 465.251 305.145zM 465.251 310.082C 465.492 310.082 465.612 310.082 465.733 309.962C 465.853 309.962 465.974 309.841 465.974 309.721C 466.094 309.601 466.094 309.48 466.094 309.36C 466.094 309.239 466.094 309.119 465.974 308.999C 465.733 308.758 465.612 308.758 465.251 308.758L 465.251 308.758L 465.251 310.082L 465.251 310.082zM 471.031 304.784C 472.355 306.229 473.198 308.156 473.198 310.323C 473.198 312.491 472.355 314.417 471.031 315.862L 471.031 304.784zM 465.01 305.145C 465.131 305.145 465.131 305.145 465.251 305.145L 465.251 308.276L 463.445 308.276L 463.445 312.25L 464.047 312.25L 464.047 310.564L 464.649 310.564C 464.769 310.564 464.89 310.564 464.89 310.564C 465.01 310.564 465.131 310.564 465.131 310.684L 465.251 310.684L 465.251 315.501C 465.131 315.501 465.131 315.501 465.01 315.501C 462.12 315.501 459.832 313.213 459.832 310.323C 459.832 307.433 462.12 305.145 465.01 305.145L 465.01 305.145zM 465.251 308.758L 464.047 308.758L 464.047 310.082L 465.131 310.082L 465.251 310.082L 465.251 308.758L 465.251 308.758zM 458.99 315.862C 457.665 314.417 456.822 312.491 456.822 310.323C 456.822 308.156 457.665 306.229 458.99 304.784L 458.99 315.862z"/>
<path style="stroke:none; fill:#5c5d5e" d="M 447.189 352.227C 447.309 352.709 447.55 353.07 447.911 353.311C 448.393 353.552 448.995 353.672 449.718 353.672C 450.44 353.672 451.163 353.552 451.644 353.311C 452.126 353.07 452.367 352.588 452.367 352.227C 452.367 351.866 452.246 351.504 451.885 351.384C 451.644 351.143 451.042 350.902 450.079 350.782C 449.958 350.662 449.718 350.662 449.356 350.541C 448.393 350.3 447.671 350.18 447.43 350.06C 447.069 349.819 446.707 349.578 446.587 349.337C 446.346 349.096 446.346 348.855 446.346 348.494C 446.346 347.772 446.587 347.29 447.189 346.808C 447.911 346.447 448.754 346.327 449.838 346.327C 450.801 346.327 451.644 346.447 452.246 346.808C 452.848 347.17 453.21 347.772 453.21 348.374L 452.005 348.374C 451.885 347.892 451.765 347.531 451.404 347.41C 450.922 347.17 450.44 347.049 449.718 347.049C 448.995 347.049 448.393 347.17 448.032 347.41C 447.671 347.651 447.43 347.892 447.43 348.374C 447.43 348.855 448.273 349.337 449.958 349.698C 450.199 349.698 450.32 349.819 450.44 349.819C 451.644 350.06 452.487 350.3 452.848 350.662C 453.33 351.023 453.571 351.504 453.571 352.107C 453.571 352.829 453.21 353.431 452.487 353.913C 451.765 354.274 450.922 354.515 449.718 354.515C 448.513 354.515 447.671 354.274 447.069 353.913C 446.346 353.552 446.105 352.949 445.985 352.227L 447.189 352.227L 447.189 352.227zM 417.808 354.515L 417.808 353.672L 417.928 353.672C 418.651 353.672 419.253 353.552 419.855 353.19C 420.337 352.829 420.578 352.347 420.698 351.866L 421.902 351.866C 421.782 352.709 421.3 353.311 420.578 353.792C 419.855 354.274 419.012 354.515 417.808 354.515L 417.808 354.515L 417.808 354.515zM 417.808 350.541L 417.808 349.819L 420.819 349.819C 420.698 348.976 420.457 348.253 419.855 347.772C 419.374 347.29 418.651 347.049 417.808 347.049L 417.808 347.049L 417.808 346.327C 417.808 346.327 417.808 346.327 417.928 346.327C 419.133 346.327 420.216 346.688 420.939 347.41C 421.661 348.133 422.023 348.976 422.023 350.18L 422.023 350.541L 417.808 350.541L 417.808 350.541zM 440.446 352.227C 440.446 352.829 440.566 353.19 440.687 353.311C 440.927 353.552 441.289 353.672 441.77 353.672C 441.891 353.672 442.011 353.672 442.252 353.672C 442.372 353.552 442.493 353.552 442.734 353.552L 442.734 354.394C 442.493 354.394 442.252 354.394 442.011 354.515C 441.77 354.515 441.65 354.515 441.409 354.515C 440.687 354.515 440.205 354.394 439.844 354.033C 439.483 353.792 439.242 353.311 439.242 352.709L 439.242 347.29L 437.435 347.29L 437.435 346.447L 439.242 346.447L 439.242 344.882L 440.446 344.4L 440.446 346.447L 442.493 346.447L 442.493 347.29L 440.446 347.29L 440.446 352.227L 440.446 352.227zM 426.237 354.274L 426.237 348.253C 426.237 348.013 426.237 347.772 426.237 347.531C 426.237 347.17 426.237 346.929 426.237 346.447L 427.321 346.447L 427.441 347.772C 427.802 347.29 428.284 346.929 428.886 346.808C 429.368 346.568 429.849 346.447 430.452 346.447C 431.535 346.447 432.378 346.688 432.86 347.17C 433.462 347.651 433.703 348.374 433.703 349.457L 433.703 354.274L 432.499 354.274L 432.499 349.578C 432.499 348.735 432.378 348.133 432.017 347.772C 431.656 347.41 431.054 347.29 430.331 347.29C 429.488 347.29 428.766 347.531 428.284 347.892C 427.682 348.374 427.441 348.976 427.441 349.698L 427.441 354.274L 426.237 354.274zM 417.808 346.327L 417.808 347.049C 416.965 347.049 416.243 347.29 415.761 347.772C 415.279 348.253 414.918 348.855 414.798 349.819L 417.808 349.819L 417.808 350.541L 414.798 350.541C 414.798 351.504 415.039 352.347 415.641 352.829C 416.122 353.431 416.845 353.672 417.808 353.672L 417.808 354.515C 416.484 354.515 415.4 354.154 414.677 353.431C 413.835 352.709 413.473 351.745 413.473 350.421C 413.473 349.217 413.835 348.253 414.677 347.41C 415.52 346.688 416.484 346.327 417.808 346.327L 417.808 346.327zM 386.501 354.515L 386.501 353.672C 387.464 353.672 388.307 353.311 388.789 352.829C 389.391 352.227 389.631 351.384 389.631 350.421C 389.631 349.337 389.391 348.615 388.789 348.013C 388.307 347.41 387.464 347.17 386.501 347.17L 386.501 346.327C 387.825 346.327 388.909 346.688 389.752 347.41C 390.474 348.133 390.956 349.217 390.956 350.421C 390.956 351.625 390.474 352.588 389.752 353.311C 388.909 354.154 387.825 354.515 386.501 354.515L 386.501 354.515zM 395.411 354.274L 395.411 348.253C 395.411 348.013 395.411 347.772 395.411 347.531C 395.411 347.17 395.411 346.929 395.411 346.447L 396.495 346.447L 396.615 347.772C 397.097 347.29 397.579 346.929 398.06 346.688C 398.542 346.568 399.024 346.447 399.626 346.447C 400.348 346.447 401.071 346.568 401.552 346.808C 402.034 347.049 402.395 347.41 402.636 348.013C 403.118 347.41 403.599 347.049 404.201 346.808C 404.683 346.568 405.285 346.447 405.887 346.447C 406.971 346.447 407.693 346.688 408.296 347.17C 408.777 347.651 409.018 348.374 409.018 349.457L 409.018 354.274L 407.934 354.274L 407.934 349.578C 407.934 348.735 407.693 348.133 407.332 347.772C 406.971 347.41 406.489 347.29 405.646 347.29C 404.803 347.29 404.201 347.531 403.599 347.892C 403.118 348.374 402.756 348.976 402.756 349.698L 402.756 354.274L 401.673 354.274L 401.673 349.578C 401.673 348.735 401.432 348.133 401.191 347.772C 400.83 347.41 400.228 347.29 399.505 347.29C 398.662 347.29 397.94 347.531 397.458 347.892C 396.856 348.374 396.615 348.976 396.615 349.698L 396.615 354.274L 395.411 354.274zM 386.501 346.327L 386.501 347.17L 386.501 347.17C 385.537 347.17 384.815 347.41 384.213 348.013C 383.731 348.615 383.49 349.337 383.49 350.421C 383.49 351.384 383.731 352.227 384.213 352.829C 384.815 353.311 385.537 353.672 386.501 353.672L 386.501 353.672L 386.501 354.515L 386.501 354.515C 385.297 354.515 384.213 354.154 383.37 353.311C 382.647 352.588 382.166 351.625 382.166 350.421C 382.166 349.217 382.647 348.133 383.37 347.41C 384.213 346.688 385.297 346.327 386.501 346.327L 386.501 346.327L 386.501 346.327zM 355.795 354.635L 355.795 353.19L 355.916 353.19L 356.156 353.19L 356.397 353.19L 356.638 353.19L 356.759 353.19L 356.999 353.07L 357.24 352.949L 357.361 352.949L 357.601 352.829L 357.722 352.709L 357.842 352.588L 357.963 352.468L 358.083 352.347L 358.203 352.107L 358.324 351.986L 358.324 351.866L 358.324 351.745L 360.13 351.745L 360.01 352.107L 359.889 352.468L 359.769 352.709L 359.648 352.949L 359.408 353.19L 359.287 353.431L 358.926 353.672L 358.685 353.913L 358.565 353.913L 358.444 354.033L 358.203 354.154L 358.083 354.154L 357.963 354.274L 357.722 354.274L 357.601 354.394L 357.361 354.394L 357.24 354.394L 356.999 354.515L 356.759 354.515L 356.638 354.515L 356.397 354.515L 356.156 354.515L 355.916 354.515L 355.795 354.635L 355.795 354.635L 355.795 354.635zM 355.795 350.782L 355.795 349.457L 358.444 349.457L 358.324 349.217L 358.324 349.096L 358.203 348.855L 358.083 348.615L 357.963 348.494L 357.842 348.253L 357.601 348.133L 357.601 348.013L 357.481 348.013L 357.361 347.892L 357.24 347.892L 357.12 347.772L 356.999 347.772L 356.999 347.651L 356.879 347.651L 356.759 347.651L 356.518 347.531L 356.397 347.531L 356.277 347.531L 356.156 347.531L 356.036 347.531L 355.916 347.531L 355.795 347.531L 355.795 346.206L 355.795 346.206L 356.036 346.206L 356.277 346.206L 356.518 346.206L 356.759 346.206L 356.999 346.327L 357.24 346.327L 357.361 346.447L 357.601 346.447L 357.842 346.568L 357.963 346.568L 358.203 346.688L 358.324 346.808L 358.565 346.929L 358.685 347.049L 358.926 347.17L 359.046 347.29L 359.167 347.41L 359.287 347.531L 359.408 347.772L 359.528 347.892L 359.648 348.013L 359.769 348.253L 359.889 348.374L 360.01 348.615L 360.01 348.735L 360.13 348.976L 360.13 349.096L 360.25 349.337L 360.25 349.578L 360.25 349.819L 360.25 349.939L 360.25 350.18L 360.25 350.782L 355.795 350.782L 355.795 350.782zM 364.224 354.274L 364.224 348.253C 364.224 348.013 364.224 347.772 364.224 347.531C 364.224 347.17 364.104 346.929 364.104 346.447L 365.308 346.447L 365.308 347.772C 365.789 347.29 366.271 346.929 366.753 346.688C 367.234 346.568 367.836 346.447 368.439 346.447C 369.161 346.447 369.763 346.568 370.245 346.808C 370.727 347.049 371.088 347.41 371.328 348.013C 371.931 347.41 372.412 347.049 372.894 346.808C 373.376 346.568 373.978 346.447 374.58 346.447C 375.663 346.447 376.506 346.688 376.988 347.17C 377.47 347.651 377.71 348.374 377.71 349.457L 377.71 354.274L 376.627 354.274L 376.627 349.578C 376.627 348.735 376.386 348.133 376.145 347.772C 375.784 347.41 375.182 347.29 374.459 347.29C 373.616 347.29 372.894 347.531 372.412 347.892C 371.81 348.374 371.569 348.976 371.569 349.698L 371.569 354.274L 370.365 354.274L 370.365 349.578C 370.365 348.735 370.245 348.133 369.884 347.772C 369.522 347.41 369.041 347.29 368.198 347.29C 367.355 347.29 366.753 347.531 366.151 347.892C 365.669 348.374 365.308 348.976 365.308 349.698L 365.308 354.274L 364.224 354.274zM 355.795 346.206L 355.795 347.531L 355.675 347.531L 355.554 347.531L 355.434 347.531L 355.314 347.531L 355.193 347.531L 355.073 347.531L 354.952 347.531L 354.832 347.651L 354.711 347.651L 354.591 347.651L 354.471 347.772L 354.35 347.772L 354.23 347.772L 354.109 347.892L 354.109 347.892L 353.989 348.013L 353.869 348.133L 353.748 348.253L 353.628 348.374L 353.387 348.615L 353.387 348.855L 353.267 348.976L 353.146 349.217L 353.026 349.457L 355.795 349.457L 355.795 350.782L 353.026 350.782L 353.026 350.782L 353.026 351.023L 353.026 351.143L 353.026 351.264L 353.146 351.384L 353.146 351.504L 353.146 351.625L 353.267 351.745L 353.267 351.866L 353.387 351.986L 353.387 352.107L 353.507 352.227L 353.507 352.347L 353.628 352.468L 353.748 352.468L 353.869 352.588L 353.989 352.709L 353.989 352.829L 354.109 352.829L 354.23 352.949L 354.35 352.949L 354.471 353.07L 354.591 353.07L 354.832 353.07L 354.952 353.19L 355.073 353.19L 355.193 353.19L 355.434 353.19L 355.554 353.19L 355.675 353.19L 355.795 353.19L 355.795 354.635L 355.434 354.515L 355.193 354.515L 354.952 354.515L 354.711 354.515L 354.591 354.515L 354.35 354.394L 354.109 354.394L 353.869 354.274L 353.628 354.274L 353.507 354.154L 353.267 354.033L 353.026 353.913L 352.905 353.792L 352.664 353.672L 352.544 353.552L 352.424 353.431L 352.183 353.311L 352.062 353.19L 351.942 353.07L 351.822 352.829L 351.701 352.709L 351.581 352.468L 351.46 352.347L 351.46 352.107L 351.34 351.986L 351.34 351.745L 351.22 351.504L 351.22 351.384L 351.099 351.143L 351.099 350.902L 351.099 350.662L 351.099 350.421L 351.099 350.18L 351.099 349.939L 351.22 349.698L 351.22 349.578L 351.22 349.337L 351.34 349.096L 351.34 348.855L 351.46 348.735L 351.581 348.494L 351.581 348.374L 351.701 348.133L 351.822 348.013L 351.942 347.772L 352.062 347.651L 352.303 347.531L 352.424 347.41L 352.544 347.17L 352.785 347.049L 352.905 346.929L 353.146 346.808L 353.267 346.688L 353.507 346.688L 353.748 346.568L 353.869 346.447L 354.109 346.447L 354.35 346.327L 354.591 346.327L 354.832 346.206L 355.073 346.206L 355.314 346.206L 355.554 346.206L 355.795 346.206L 355.795 346.206zM 343.393 347.651L 343.393 346.327L 345.319 346.327L 345.319 344.882L 345.319 344.641L 345.319 344.4L 345.319 344.28L 345.44 344.039L 345.56 343.918L 345.681 343.678L 345.801 343.557L 345.921 343.437L 346.042 343.316L 346.283 343.196L 346.523 343.076L 346.644 343.076L 346.885 343.076L 347.125 342.955L 347.366 342.955L 347.728 342.955L 347.728 342.955L 347.848 342.955L 347.848 342.955L 347.968 342.955L 347.968 342.955L 348.089 342.955L 348.089 342.955L 348.209 342.955L 348.329 342.955L 348.329 342.955L 348.45 342.955L 348.57 342.955L 348.57 343.076L 348.691 343.076L 348.811 343.076L 349.172 343.076L 349.172 344.4L 348.811 344.4L 348.691 344.4L 348.57 344.4L 348.329 344.4L 348.329 344.4L 348.209 344.4L 348.089 344.4L 348.089 344.4L 347.848 344.4L 347.728 344.4L 347.607 344.4L 347.487 344.4L 347.366 344.4L 347.246 344.4L 347.246 344.521L 347.125 344.521L 347.125 344.521L 347.125 344.521L 347.125 344.641L 347.125 344.641L 347.005 344.761L 347.005 344.882L 347.005 345.002L 347.005 345.123L 347.005 346.327L 349.172 346.327L 349.172 347.651L 347.005 347.651L 347.005 354.394L 345.319 354.394L 345.319 347.651L 343.393 347.651L 343.393 347.651zM 337.974 354.394L 337.974 346.327L 339.66 346.327L 339.66 354.394L 337.974 354.394L 337.974 354.394zM 337.854 344.882L 337.854 343.076L 339.78 343.076L 339.78 344.882L 337.854 344.882L 337.854 344.882zM 331.351 354.394L 331.351 343.076L 333.158 343.076L 333.158 354.394L 331.351 354.394z"/>
</g>
</g>
</svg>